<mxfile host="app.diagrams.net" modified="2023-10-10T19:29:43.821Z" agent="Mozilla/5.0 (X11; Linux x86_64) AppleWebKit/537.36 (KHTML, like Gecko) Chrome/117.0.0.0 Safari/537.36" version="22.0.4" etag="uw72-X6OX-qFOurSvNI8" type="github">
  <diagram name="PÃ¡gina-1" id="UdeLpdSZnAe6Wkgfhye3">
    <mxGraphModel>
      <root>
        <mxCell id="0" />
        <mxCell id="1" parent="0" />
      </root>
    </mxGraphModel>
  </diagram>
</mxfile>
